<svg xmlns="http://www.w3.org/2000/svg" data-name="Layer 1" viewBox="0 0 512 512"><path d="M512,32.29v-15A17.52,17.52,0,0,0,494.5-.21H17.5A17.52,17.52,0,0,0,0,17.29v15A17.52,17.52,0,0,0,16,49.72v85.15A17.51,17.51,0,0,0,0,152.29v15a17.52,17.52,0,0,0,16,17.43v85.15A17.51,17.51,0,0,0,0,287.29v15a17.52,17.52,0,0,0,16,17.43V497H7.5a7.5,7.5,0,0,0,0,15h497a7.5,7.5,0,0,0,0-15H496V319.72a17.52,17.52,0,0,0,16-17.43v-15a17.51,17.51,0,0,0-16-17.42V184.72a17.52,17.52,0,0,0,16-17.43v-15a17.51,17.51,0,0,0-16-17.42V49.72A17.52,17.52,0,0,0,512,32.29ZM248.5,497h-72V394.84h72Zm87,0h-72V394.84h72ZM350,379.84H162a.51.51,0,0,1-.5-.5v-14a.5.5,0,0,1,.5-.5H350a.5.5,0,0,1,.5.5v14A.51.51,0,0,1,350,379.84ZM481,497H350.51V394.81a15.51,15.51,0,0,0,15-15.47v-14a15.52,15.52,0,0,0-15.5-15.5H162a15.52,15.52,0,0,0-15.5,15.5v14a15.51,15.51,0,0,0,15,15.47V497H31V319.79H481Zm16-209.71v15a2.5,2.5,0,0,1-2.5,2.5H17.5a2.5,2.5,0,0,1-2.5-2.5v-15a2.5,2.5,0,0,1,2.5-2.5h477A2.5,2.5,0,0,1,497,287.29ZM31,269.79v-85h78v85Zm93,0v-85h78v85Zm93,0v-85h78v85Zm93,0v-85h78v85Zm93,0v-85h78v85Zm94-117.5v15a2.5,2.5,0,0,1-2.5,2.5H17.5a2.5,2.5,0,0,1-2.5-2.5v-15a2.5,2.5,0,0,1,2.5-2.5h477A2.5,2.5,0,0,1,497,152.29ZM31,134.79v-85h78v85Zm93,0v-85h78v85Zm93,0v-85h78v85Zm93,0v-85h78v85Zm93,0v-85h78v85Zm91.5-100H17.5a2.5,2.5,0,0,1-2.5-2.5v-15a2.5,2.5,0,0,1,2.5-2.5h477a2.5,2.5,0,0,1,2.5,2.5v15A2.5,2.5,0,0,1,494.5,34.79ZM56.05,475.29H136a7.5,7.5,0,0,0,7.5-7.5V418.56a7.5,7.5,0,0,0-7.5-7.5H56.05a7.5,7.5,0,0,0-7.5,7.5v49.23A7.5,7.5,0,0,0,56.05,475.29Zm7.5-49.23h64.9v34.23H63.55Zm312.5,49.23H456a7.5,7.5,0,0,0,7.5-7.5V418.56a7.5,7.5,0,0,0-7.5-7.5h-79.9a7.5,7.5,0,0,0-7.5,7.5v49.23A7.5,7.5,0,0,0,376.05,475.29Zm7.5-49.23h64.9v34.23h-64.9Z"/></svg>