<?xml version="1.0" encoding="UTF-8"?>
<svg xmlns="http://www.w3.org/2000/svg" xmlns:xlink="http://www.w3.org/1999/xlink" version="1.1" id="Layer_1" x="0px" y="0px" viewBox="0 0 20 20" style="enable-background:new 0 0 20 20;" xml:space="preserve">
<style type="text/css">
	.st0{fill:none;stroke:#000000;stroke-linecap:round;stroke-linejoin:round;stroke-miterlimit:10;}
	.st1{fill:none;stroke:#000000;stroke-miterlimit:10;}
	.st2{fill:#3BACD9;}
	.st3{fill:#85E7FB;}
	.st4{fill:#4C565D;}
	.st5{fill:#FBBB59;stroke:#000000;stroke-miterlimit:10;}
	.st6{fill:#969FA6;}
	.st7{fill:none;}
	.st8{fill-rule:evenodd;clip-rule:evenodd;fill:#85E7FB;}
	.st9{fill:#2795B7;}
	.st10{fill:#FBBB59;}
	.st11{fill:#1BB978;}
	.st12{fill-rule:evenodd;clip-rule:evenodd;}
</style>
<g>
	<path id="XMLID_402_" class="st12" d="M6,5c0.7,0,0.7,1,0,1l0,0C5.3,6,5.3,5,6,5L6,5z" style="clip-rule: evenodd; fill-rule: evenodd;"/>
	<g id="XMLID_398_">
		<path id="XMLID_401_" class="st12" d="M13,5h-2.5h-2H8C7.7,5,7.5,5.2,7.5,5.5C7.5,5.8,7.7,6,8,6h0.5h2H13c0.3,0,0.5-0.2,0.5-0.5    C13.5,5.2,13.3,5,13,5z" style="clip-rule: evenodd; fill-rule: evenodd;"/>
		<path id="XMLID_400_" class="st12" d="M8.5,5h2c-0.7,0-0.7-1-0.1-1H11c0.3,0,0.5-0.2,0.5-0.5C11.5,3.2,11.3,3,11,3H6    C5.7,3,5.5,3.2,5.5,3.5C5.5,3.8,5.7,4,6,4h2.5C9.1,4,9.1,5,8.5,5z" style="clip-rule: evenodd; fill-rule: evenodd;"/>
		<path id="XMLID_399_" class="st12" d="M14,3h-1c-0.3,0-0.5,0.2-0.5,0.5v0C12.5,3.8,12.7,4,13,4h1c0.3,0,0.5-0.2,0.5-0.5v0    C14.5,3.2,14.3,3,14,3z" style="clip-rule: evenodd; fill-rule: evenodd;"/>
	</g>
	<path id="XMLID_397_" class="st1" d="M5,11l0.2-3.1c0-0.2,0.2-0.3,0.4-0.3h1.6c0.2,0,0.4,0.1,0.4,0.3L7.7,11" style="fill: none; stroke: #000000; stroke-miterlimit: 10;"/>
	<path id="XMLID_396_" class="st1" d="M15.9,10l-1.8,1.3c-0.2,0.2-0.6,0-0.6-0.3v-0.8c0-0.3-0.4-0.5-0.6-0.3l-1.8,1.3   c-0.2,0.2-0.6,0-0.6-0.3v-0.9c0-0.3-0.3-0.5-0.6-0.3L7.9,11H5c-0.3,0-0.5,0.2-0.5,0.5l0,5.5c0,0.3,0.2,0.5,0.5,0.5h2.5h2h6.6   c0.2,0,0.4-0.2,0.4-0.4l0-3.9v-1.1v-0.4v-1.5C16.5,9.9,16.1,9.8,15.9,10z" style="fill: none; stroke: #000000; stroke-miterlimit: 10;"/>
	<rect id="XMLID_395_" x="9.5" y="13" width="1" height="1"/>
	<rect id="XMLID_394_" x="11.5" y="13" width="1" height="1"/>
	<rect id="XMLID_393_" x="13.5" y="13" width="1" height="1"/>
	<rect id="XMLID_392_" x="9.5" y="15" width="1" height="1"/>
	<rect id="XMLID_391_" x="11.5" y="15" width="1" height="1"/>
	<rect id="XMLID_386_" x="13.5" y="15" width="1" height="1"/>
</g>

	<metadata>
		<rdf:RDF xmlns:rdf="http://www.w3.org/1999/02/22-rdf-syntax-ns#" xmlns:rdfs="http://www.w3.org/2000/01/rdf-schema#" xmlns:dc="http://purl.org/dc/elements/1.1/">
			<rdf:Description about="https://iconscout.com/legal#licenses" dc:title="19 industry factory building infrastructure development" dc:description="19 industry factory building infrastructure development" dc:publisher="Iconscout" dc:date="2017-03-16" dc:format="image/svg+xml" dc:language="en">
				<dc:creator>
					<rdf:Bag>
						<rdf:li>Jemis Mali</rdf:li>
					</rdf:Bag>
				</dc:creator>
			</rdf:Description>
		</rdf:RDF>
    </metadata></svg>
