<?xml version="1.0" encoding="UTF-8" standalone="no"?>
<svg xmlns:dc="http://purl.org/dc/elements/1.1/" xmlns:cc="http://creativecommons.org/ns#" xmlns:rdf="http://www.w3.org/1999/02/22-rdf-syntax-ns#" xmlns:svg="http://www.w3.org/2000/svg" xmlns="http://www.w3.org/2000/svg" xmlns:sodipodi="http://sodipodi.sourceforge.net/DTD/sodipodi-0.dtd" xmlns:inkscape="http://www.inkscape.org/namespaces/inkscape" width="32px" height="32px" viewBox="0 0 32 32.000001" id="svg2" version="1.1" inkscape:version="0.91 r13725" sodipodi:docname="43 company hierarchy team level hybrid boss employee command.svg">
  <defs id="defs4">
    <pattern y="0" x="0" height="6" width="6" patternUnits="userSpaceOnUse" id="EMFhbasepattern"/>
    <pattern y="0" x="0" height="6" width="6" patternUnits="userSpaceOnUse" id="EMFhbasepattern-1"/>
    <inkscape:path-effect effect="spiro" id="path-effect4381-9-5-8" is_visible="true"/>
  </defs>
  <sodipodi:namedview id="base" pagecolor="#ffffff" bordercolor="#666666" borderopacity="1.0" inkscape:pageopacity="0.0" inkscape:pageshadow="2" inkscape:zoom="2.8" inkscape:cx="-85.997695" inkscape:cy="41.996873" inkscape:document-units="px" inkscape:current-layer="layer1" showgrid="true" units="px" inkscape:window-width="1366" inkscape:window-height="705" inkscape:window-x="-8" inkscape:window-y="-8" inkscape:window-maximized="1" inkscape:snap-bbox="true" inkscape:bbox-paths="true" inkscape:bbox-nodes="true" inkscape:snap-bbox-edge-midpoints="true" inkscape:snap-bbox-midpoints="true">
    <inkscape:grid type="xygrid" id="grid3470"/>
  </sodipodi:namedview>
  
  <g inkscape:label="Layer 1" inkscape:groupmode="layer" id="layer1" transform="translate(0,-1020.3622)">
    <path style="color:#000000;font-style:normal;font-variant:normal;font-weight:normal;font-stretch:normal;font-size:medium;line-height:normal;font-family:sans-serif;text-indent:0;text-align:start;text-decoration:none;text-decoration-line:none;text-decoration-style:solid;text-decoration-color:#000000;letter-spacing:normal;word-spacing:normal;text-transform:none;direction:ltr;block-progression:tb;writing-mode:lr-tb;baseline-shift:baseline;text-anchor:start;white-space:normal;clip-rule:nonzero;display:inline;overflow:visible;visibility:visible;opacity:1;isolation:auto;mix-blend-mode:normal;color-interpolation:sRGB;color-interpolation-filters:linearRGB;solid-color:#000000;solid-opacity:1;fill:#000000;fill-opacity:1;fill-rule:nonzero;stroke:none;stroke-width:1;stroke-linecap:butt;stroke-linejoin:miter;stroke-miterlimit:4;stroke-dasharray:none;stroke-dashoffset:0;stroke-opacity:1;color-rendering:auto;image-rendering:auto;shape-rendering:auto;text-rendering:auto;enable-background:accumulate" d="M 16.5 0 C 15.123647 0 14 1.1237 14 2.5 C 14 3.8764 15.123647 5 16.5 5 C 17.876352 5 19 3.8764 19 2.5 C 19 1.1237 17.876352 0 16.5 0 z M 16.5 1 C 17.33965 1 18 1.6604 18 2.5 C 18 3.3397 17.33965 4 16.5 4 C 15.660349 4 15 3.3397 15 2.5 C 15 1.6604 15.660349 1 16.5 1 z M 14.681641 4.9667969 C 13.199622 4.9667969 12 6.1932 12 7.6875 L 12 8.2792969 L 12 11 L 14.681641 11 L 18.318359 11 L 21 11 L 21 8.2792969 L 21 7.6875 C 21 6.1932 19.800301 4.9667969 18.318359 4.9667969 L 18.050781 4.9667969 L 16.5 6.546875 L 14.947266 4.9667969 L 14.681641 4.9667969 z M 14.572266 6.0117188 L 15.802734 7.265625 C 16.178991 7.648425 16.819109 7.648525 17.195312 7.265625 L 18.425781 6.0117188 C 19.301684 6.0756187 20 6.7637 20 7.6875 L 20 8.2792969 L 20 10 L 18.318359 10 L 14.681641 10 L 13 10 L 13 8.2792969 L 13 7.6875 C 13 6.7644 13.697184 6.0766188 14.572266 6.0117188 z M 15.5 12 L 15.5 13.5 L 8.5019531 13.5 C 7.1246921 13.5 6 14.6234 6 16 L 6 19 L 7 19 L 7 16 C 7 15.1607 7.6608142 14.5 8.5019531 14.5 L 15.5 14.5 L 16.5 14.5 L 24.517578 14.5 C 25.358717 14.5 26.021484 15.1607 26.021484 16 L 26.021484 19 L 27.021484 19 L 27.021484 16 C 27.021484 14.6234 25.894839 13.5 24.517578 13.5 L 16.5 13.5 L 16.5 12 L 15.5 12 z M 6.4199219 20 C 5.0053824 20 3.8515625 21.155812 3.8515625 22.570312 C 3.8515625 23.984913 5.0053533 25.138672 6.4199219 25.138672 C 7.8344904 25.138672 8.9882814 23.984913 8.9882812 22.570312 C 8.9882812 21.155812 7.8344613 20 6.4199219 20 z M 26.580078 20 C 25.165539 20 24.011719 21.155812 24.011719 22.570312 C 24.011719 23.984913 25.16551 25.138672 26.580078 25.138672 C 27.994647 25.138672 29.148438 23.984913 29.148438 22.570312 C 29.148438 21.155812 27.994618 20 26.580078 20 z M 6.4199219 21 C 7.2977916 21 7.9882814 21.692513 7.9882812 22.570312 C 7.9882812 23.448212 7.2977625 24.138672 6.4199219 24.138672 C 5.5420812 24.138672 4.8515625 23.448213 4.8515625 22.570312 C 4.8515625 21.692513 5.5420521 21 6.4199219 21 z M 26.580078 21 C 27.457948 21 28.148437 21.692513 28.148438 22.570312 C 28.148438 23.448212 27.457919 24.138672 26.580078 24.138672 C 25.702238 24.138672 25.011719 23.448213 25.011719 22.570312 C 25.011719 21.692513 25.702209 21 26.580078 21 z M 4.6445312 26 C 3.1881113 26 2 27.190084 2 28.646484 L 2 28.789062 L 2 32 L 10.839844 32 L 10.839844 28.753906 L 10.839844 28.646484 C 10.839844 27.190084 9.6517332 26 8.1953125 26 L 4.6445312 26 z M 24.804688 26 C 23.348267 26 22.160156 27.190084 22.160156 28.646484 L 22.160156 28.789062 L 22.160156 32 L 31 32 L 31 28.753906 L 31 28.646484 C 31 27.190084 29.81189 26 28.355469 26 L 24.804688 26 z M 4.6445312 27.03125 L 8.1953125 27.03125 C 9.0991294 27.03125 9.8105469 27.742684 9.8105469 28.646484 L 9.8105469 28.753906 L 9.8105469 30.970703 L 3.0292969 30.970703 L 3.0292969 28.753906 L 3.0292969 28.646484 C 3.0292969 27.742684 3.7407156 27.03125 4.6445312 27.03125 z M 24.804688 27.03125 L 28.355469 27.03125 C 29.259286 27.03125 29.970703 27.742684 29.970703 28.646484 L 29.970703 28.753906 L 29.970703 30.970703 L 23.189453 30.970703 L 23.189453 28.753906 L 23.189453 28.646484 C 23.189453 27.742684 23.900871 27.03125 24.804688 27.03125 z " id="rect7228-3-5-3-8" transform="translate(0,1020.3622)"/>
  </g>

	
	
	<metadata>
		<rdf:RDF xmlns:rdf="http://www.w3.org/1999/02/22-rdf-syntax-ns#" xmlns:rdfs="http://www.w3.org/2000/01/rdf-schema#" xmlns:dc="http://purl.org/dc/elements/1.1/">
			<rdf:Description about="https://iconscout.com/legal#licenses" dc:title="Company, Hierarchy, Team, Level, Hybrid, Boss, Employee, Command" dc:description="Company, Hierarchy, Team, Level, Hybrid, Boss, Employee, Command" dc:publisher="Iconscout" dc:date="2016-12-14" dc:format="image/svg+xml" dc:language="en">
				<dc:creator>
					<rdf:Bag>
						<rdf:li>Chamestudio</rdf:li>
					</rdf:Bag>
				</dc:creator>
			</rdf:Description>
		</rdf:RDF>
    </metadata></svg>
