<svg xmlns="http://www.w3.org/2000/svg" enable-background="new 0 0 100 100" viewBox="0 0 100 100"><rect width="7.5" height="5" x="57.5" y="45"/><path d="M50,5L50,5c-8.284,0-15,6.716-15,15v41.802c-3.103,3.524-5,8.134-5,13.198c0,11.046,8.954,20,20,20   c0.36,0,0.723-0.01,1.087-0.029c10.33-0.547,18.674-9.169,18.908-19.511c0.119-5.245-1.798-10.028-4.995-13.658V55h-7.5v9.633   l1.871,2.125c2.086,2.369,3.196,5.399,3.125,8.532c-0.144,6.385-5.441,11.854-11.806,12.191C50.46,87.494,50.229,87.5,50,87.5   c-6.893,0-12.5-5.607-12.5-12.5c0-3.024,1.111-5.951,3.129-8.242l1.871-2.125V20c0-4.135,3.365-7.5,7.5-7.5   c4.135,0,7.5,3.365,7.5,7.5H65C65,11.716,58.284,5,50,5z"/><rect width="7.5" height="5" x="57.5" y="35"/><rect width="7.5" height="5" x="57.5" y="25"/><path d="M47.5,35v32.938c-2.908,1.033-5,3.804-5,7.063c0,4.136,3.364,7.5,7.5,7.5s7.5-3.364,7.5-7.5c0-3.258-2.092-6.03-5-7.063V35   H47.5z"/></svg>